<svg xmlns="http://www.w3.org/2000/svg" viewBox="0 0 24 24" id="Expand-Full--Streamline-Ultimate" height="24" width="24">
  <desc>
    Expand Full Streamline Icon: https://streamlinehq.com
  </desc>
  <title>expand-full</title>
  <path d="M16.5 0.5h6a1 1 0 0 1 1 1v4" fill="none" stroke="#000000" stroke-linecap="round" stroke-linejoin="round" stroke-width="1"></path>
  <path d="M7.5 0.5h-6a1 1 0 0 0 -1 1v4" fill="none" stroke="#000000" stroke-linecap="round" stroke-linejoin="round" stroke-width="1"></path>
  <path d="M16.5 23.5h6a1 1 0 0 0 1 -1v-4" fill="none" stroke="#000000" stroke-linecap="round" stroke-linejoin="round" stroke-width="1"></path>
  <path d="M7.5 23.5h-6a1 1 0 0 1 -1 -1v-4" fill="none" stroke="#000000" stroke-linecap="round" stroke-linejoin="round" stroke-width="1"></path>
  <path d="M6.5 8.499h11s1 0 1 1v5s0 1 -1 1h-11s-1 0 -1 -1v-5s0 -1 1 -1" fill="none" stroke="#000000" stroke-linecap="round" stroke-linejoin="round" stroke-width="1"></path>
</svg>