<svg xmlns="http://www.w3.org/2000/svg" viewBox="0 0 24 24" id="Time-Daily-1--Streamline-Ultimate" height="24" width="24">
  <desc>
    Time Daily 1 Streamline Icon: https://streamlinehq.com
  </desc>
  <title>time-daily-1</title>
  <path d="M16.5 23.5h-15a1 1 0 0 1 -1 -1v-19a1 1 0 0 1 1 -1h21a1 1 0 0 1 1 1v12" fill="none" stroke="#000000" stroke-linecap="round" stroke-linejoin="round" stroke-width="1"></path>
  <path d="m5.5 0.5 0 5" fill="none" stroke="#000000" stroke-linecap="round" stroke-linejoin="round" stroke-width="1"></path>
  <path d="m18.5 0.5 0 5" fill="none" stroke="#000000" stroke-linecap="round" stroke-linejoin="round" stroke-width="1"></path>
  <path d="m0.5 7.5 23 0" fill="none" stroke="#000000" stroke-linecap="round" stroke-linejoin="round" stroke-width="1"></path>
  <path d="M23.5 15.5v7a1 1 0 0 1 -1 1h-6" fill="none" stroke="#000000" stroke-linecap="round" stroke-linejoin="round" stroke-width="1"></path>
  <path d="m9.499 18 4.5 0" fill="none" stroke="#000000" stroke-linecap="round" stroke-linejoin="round" stroke-width="1"></path>
  <path d="M12 18v-6.5a0.5 0.5 0 0 0 -0.812 -0.391L9.5 12.459" fill="none" stroke="#000000" stroke-linecap="round" stroke-linejoin="round" stroke-width="1"></path>
</svg>