<svg viewBox="0 0 24 24" xmlns="http://www.w3.org/2000/svg" id="Gauge-Dashboard--Streamline-Ultimate" height="24" width="24">
  <desc>
    Gauge Dashboard Streamline Icon: https://streamlinehq.com
  </desc>
  <path d="M10.5 14a1.5 1.5 0 1 0 3 0 1.5 1.5 0 1 0 -3 0" fill="none" stroke="#000000" stroke-linecap="round" stroke-linejoin="round" stroke-width="1"></path>
  <path d="m13.06 12.939 4.951 -4.949" fill="none" stroke="#000000" stroke-linecap="round" stroke-linejoin="round" stroke-width="1"></path>
  <path d="m2.5 14.5 2 0" fill="none" stroke="#000000" stroke-linecap="round" stroke-linejoin="round" stroke-width="1"></path>
  <path d="m21.5 14.5 -2 0" fill="none" stroke="#000000" stroke-linecap="round" stroke-linejoin="round" stroke-width="1"></path>
  <path d="m20.776 10.365 -1.847 0.765" fill="none" stroke="#000000" stroke-linecap="round" stroke-linejoin="round" stroke-width="1"></path>
  <path d="m15.635 5.223 -0.765 1.848" fill="none" stroke="#000000" stroke-linecap="round" stroke-linejoin="round" stroke-width="1"></path>
  <path d="m12 4.5 0 2" fill="none" stroke="#000000" stroke-linecap="round" stroke-linejoin="round" stroke-width="1"></path>
  <path d="m8.365 5.223 0.765 1.848" fill="none" stroke="#000000" stroke-linecap="round" stroke-linejoin="round" stroke-width="1"></path>
  <path d="m5.283 7.282 1.412 1.415" fill="none" stroke="#000000" stroke-linecap="round" stroke-linejoin="round" stroke-width="1"></path>
  <path d="m3.224 10.365 1.846 0.765" fill="none" stroke="#000000" stroke-linecap="round" stroke-linejoin="round" stroke-width="1"></path>
  <path d="M12 2.5A11.5 11.5 0 0 0 0.5 14v3.5a1 1 0 0 0 1 1h21a1 1 0 0 0 1 -1V14A11.5 11.5 0 0 0 12 2.5" fill="none" stroke="#000000" stroke-linecap="round" stroke-linejoin="round" stroke-width="1"></path>
</svg>