<svg xmlns="http://www.w3.org/2000/svg" viewBox="0 0 24 24" id="Keyboard-Eject--Streamline-Ultimate" height="24" width="24">
  <desc>
    Keyboard Eject Streamline Icon: https://streamlinehq.com
  </desc>
  <title>keyboard-eject</title>
  <path d="M4.501 0.497h15s4 0 4 4v15s0 4 -4 4h-15s-4 0 -4 -4v-15s0 -4 4 -4" fill="none" stroke="#000000" stroke-linecap="round" stroke-linejoin="round" stroke-width="1"></path>
  <path d="M5.001 14.497h14s0.5 0 0.5 0.5v3s0 0.5 -0.5 0.5h-14s-0.5 0 -0.5 -0.5v-3s0 -0.5 0.5 -0.5" fill="none" stroke="#000000" stroke-linecap="round" stroke-linejoin="round" stroke-width="1"></path>
  <path d="M12.365 3.886a0.5 0.5 0 0 0 -0.729 0L5.29 10.655a0.5 0.5 0 0 0 0.365 0.842h12.692a0.5 0.5 0 0 0 0.364 -0.842Z" fill="none" stroke="#000000" stroke-linecap="round" stroke-linejoin="round" stroke-width="1"></path>
</svg>