<svg xmlns="http://www.w3.org/2000/svg" fill="none" viewBox="0 0 24 24" id="Division-Math-Symbol-Circle--Streamline-Ultimate" height="24" width="24">
  <desc>
    Division Math Symbol Circle Streamline Icon: https://streamlinehq.com
  </desc>
  <path stroke="#000000" stroke-linecap="round" stroke-linejoin="round" stroke-miterlimit="10" d="M12.05 23.2998c6.2132 0 11.25 -5.0367 11.25 -11.2499C23.3 5.83667 18.2632 0.799805 12.05 0.799805 5.83679 0.799805 0.800003 5.83667 0.800003 12.0499c0 6.2132 5.036787 11.2499 11.249997 11.2499" stroke-width="1"></path>
  <path stroke="#000000" stroke-linecap="round" stroke-linejoin="round" stroke-miterlimit="10" d="M6.40001 12H17.7" stroke-width="1"></path>
  <path stroke="#000000" stroke-linecap="round" stroke-linejoin="round" stroke-miterlimit="10" d="M12 8.84778c0.7412 0 1.3421 -0.60088 1.3421 -1.3421S12.7412 6.16357 12 6.16357s-1.3421 0.60089 -1.3421 1.34211 0.6009 1.3421 1.3421 1.3421" stroke-width="1"></path>
  <path stroke="#000000" stroke-linecap="round" stroke-linejoin="round" stroke-miterlimit="10" d="M12 17.9362c0.7412 0 1.3421 -0.6009 1.3421 -1.3421 0 -0.7413 -0.6009 -1.3421 -1.3421 -1.3421s-1.3421 0.6008 -1.3421 1.3421c0 0.7412 0.6009 1.3421 1.3421 1.3421" stroke-width="1"></path>
</svg>