<svg xmlns="http://www.w3.org/2000/svg" fill="none" viewBox="0 0 24 24" id="Flip-Vertical-Down--Streamline-Ultimate" height="24" width="24">
  <desc>
    Flip Vertical Down Streamline Icon: https://streamlinehq.com
  </desc>
  <path stroke="#000000" stroke-linecap="round" stroke-linejoin="round" d="m13.9825 14.1024 -0.9774 3.9589 -3.94999 -0.9526" stroke-width="1"></path>
  <path stroke="#000000" stroke-linecap="round" stroke-linejoin="round" d="M22.4078 9.52096V1.59122c0 -0.26288 -0.1044 -0.515 -0.2903 -0.700893 -0.1859 -0.185889 -0.438 -0.290321 -0.7009 -0.290321H3.57465c-0.26288 0 -0.515 0.104432 -0.70089 0.290321 -0.18589 0.185893 -0.29032 0.438013 -0.29032 0.700893v7.92974" stroke-width="1"></path>
  <path stroke="#000000" stroke-linecap="round" stroke-linejoin="round" d="M13.4868 11.5024h9.9122" stroke-width="1"></path>
  <path stroke="#000000" stroke-linecap="round" stroke-linejoin="round" d="M0.601013 11.5024H7.53954" stroke-width="1"></path>
  <path stroke="#000000" stroke-linecap="round" stroke-linejoin="round" d="M12.9912 18.0613c-1.5911 -1.8026 -2.4727 -4.1221 -2.4808 -6.5264 -0.008 -2.40434 0.8582 -4.72964 2.4372 -6.5428" stroke-width="1"></path>
  <path stroke="#000000" d="M2.58344 22.9044c-0.13686 0 -0.24781 0.1109 -0.24781 0.2478s0.11095 0.2478 0.24781 0.2478" stroke-width="1"></path>
  <path stroke="#000000" d="M2.58343 22.9044c0.13686 0 0.24781 0.1109 0.24781 0.2478s-0.11095 0.2478 -0.24781 0.2478" stroke-width="1"></path>
  <path stroke="#000000" d="M6.54834 22.9044c-0.13686 0 -0.2478 0.1109 -0.2478 0.2478s0.11094 0.2478 0.2478 0.2478" stroke-width="1"></path>
  <path stroke="#000000" d="M6.54834 22.9044c0.13686 0 0.2478 0.1109 0.2478 0.2478s-0.11094 0.2478 -0.2478 0.2478" stroke-width="1"></path>
  <path stroke="#000000" d="M10.5132 22.9044c-0.1369 0 -0.2478 0.1109 -0.2478 0.2478s0.1109 0.2478 0.2478 0.2478" stroke-width="1"></path>
  <path stroke="#000000" d="M10.5132 22.9044c0.1368 0 0.2478 0.1109 0.2478 0.2478s-0.111 0.2478 -0.2478 0.2478" stroke-width="1"></path>
  <path stroke="#000000" d="M14.478 22.9044c-0.1368 0 -0.2478 0.1109 -0.2478 0.2478s0.111 0.2478 0.2478 0.2478" stroke-width="1"></path>
  <path stroke="#000000" d="M14.4781 22.9044c0.1368 0 0.2478 0.1109 0.2478 0.2478s-0.111 0.2478 -0.2478 0.2478" stroke-width="1"></path>
  <path stroke="#000000" d="M18.4429 22.9044c-0.1368 0 -0.2478 0.1109 -0.2478 0.2478s0.111 0.2478 0.2478 0.2478" stroke-width="1"></path>
  <path stroke="#000000" d="M18.4429 22.9044c0.1369 0 0.2478 0.1109 0.2478 0.2478s-0.1109 0.2478 -0.2478 0.2478" stroke-width="1"></path>
  <g>
    <path stroke="#000000" d="M22.4078 22.9044c-0.1369 0 -0.2478 0.1109 -0.2478 0.2478s0.1109 0.2478 0.2478 0.2478" stroke-width="1"></path>
    <path stroke="#000000" d="M22.4078 22.9044c0.1368 0 0.2478 0.1109 0.2478 0.2478s-0.111 0.2478 -0.2478 0.2478" stroke-width="1"></path>
  </g>
  <g>
    <path stroke="#000000" d="M2.58344 18.9385c-0.13686 0 -0.24781 0.111 -0.24781 0.2478 0 0.1369 0.11095 0.2478 0.24781 0.2478" stroke-width="1"></path>
    <path stroke="#000000" d="M2.58343 18.9385c0.13686 0 0.24781 0.111 0.24781 0.2478 0 0.1369 -0.11095 0.2478 -0.24781 0.2478" stroke-width="1"></path>
  </g>
  <g>
    <path stroke="#000000" d="M2.58344 14.9727c-0.13686 0 -0.24781 0.1109 -0.24781 0.2478 0 0.1368 0.11095 0.2478 0.24781 0.2478" stroke-width="1"></path>
    <path stroke="#000000" d="M2.58343 14.9727c0.13686 0 0.24781 0.1109 0.24781 0.2478 0 0.1368 -0.11095 0.2478 -0.24781 0.2478" stroke-width="1"></path>
  </g>
  <g>
    <path stroke="#000000" d="M22.4078 18.9385c-0.1369 0 -0.2478 0.111 -0.2478 0.2478 0 0.1369 0.1109 0.2478 0.2478 0.2478" stroke-width="1"></path>
    <path stroke="#000000" d="M22.4078 18.9385c0.1368 0 0.2478 0.111 0.2478 0.2478 0 0.1369 -0.111 0.2478 -0.2478 0.2478" stroke-width="1"></path>
  </g>
  <g>
    <path stroke="#000000" d="M22.4078 14.9727c-0.1369 0 -0.2478 0.1109 -0.2478 0.2478 0 0.1368 0.1109 0.2478 0.2478 0.2478" stroke-width="1"></path>
    <path stroke="#000000" d="M22.4078 14.9727c0.1368 0 0.2478 0.1109 0.2478 0.2478 0 0.1368 -0.111 0.2478 -0.2478 0.2478" stroke-width="1"></path>
  </g>
</svg>