<svg xmlns="http://www.w3.org/2000/svg" fill="none" viewBox="0 0 24 24" id="Laptop-Help-Message--Streamline-Ultimate" height="24" width="24">
  <desc>
    Laptop Help Message Streamline Icon: https://streamlinehq.com
  </desc>
  <path stroke="#000000" stroke-linecap="round" stroke-linejoin="round" d="M9 7.5H5.167c-0.219 0 -0.43585 0.04315 -0.63816 0.12699 -0.20232 0.08384 -0.38613 0.20672 -0.54094 0.36162s-0.27758 0.33878 -0.36129 0.54115c-0.08372 0.20236 -0.12674 0.41924 -0.12661 0.63824V20.5" stroke-width="1"></path>
  <path stroke="#000000" stroke-linecap="round" stroke-linejoin="round" d="M20.5 20.501v-6.5" stroke-width="1"></path>
  <path stroke="#000000" stroke-linecap="round" stroke-linejoin="round" d="M23.5 20.5c0 0.7956 -0.3161 1.5587 -0.8787 2.1213S21.2956 23.5 20.5 23.5h-17c-0.79565 0 -1.55871 -0.3161 -2.12132 -0.8787S0.5 21.2956 0.5 20.5z" stroke-width="1"></path>
  <path stroke="#000000" stroke-linecap="round" stroke-linejoin="round" d="M16 5.5c0 -0.29667 0.088 -0.58668 0.2528 -0.83335 0.1648 -0.24668 0.3991 -0.43894 0.6732 -0.55247s0.5757 -0.14324 0.8666 -0.08536c0.291 0.05788 0.5583 0.20074 0.7681 0.41052 0.2097 0.20978 0.3526 0.47705 0.4105 0.76803 0.0579 0.29097 0.0281 0.59257 -0.0854 0.86666s-0.3058 0.50835 -0.5524 0.67318C18.0867 6.91203 17.7967 7 17.5 7" stroke-width="1"></path>
  <path stroke="#000000" stroke-linecap="round" stroke-linejoin="round" d="M17.433 0.500001c-0.7897 0.002643 -1.571 0.162365 -2.2984 0.469866 -0.7274 0.307503 -1.3864 0.756633 -1.9385 1.321263 -0.5522 0.56462 -0.9865 1.23344 -1.2777 1.96753 -0.2912 0.73408 -0.4334 1.51876 -0.4184 2.30834 -0.045 1.11659 0.2257 2.22324 0.781 3.193L10.5 13.5l3.741 -1.782c0.7975 0.4944 1.6988 0.7969 2.6331 0.8839 0.9342 0.087 1.8759 -0.0441 2.751 -0.3828 0.875 -0.3387 1.6595 -0.8758 2.2917 -1.5692 0.6322 -0.69327 1.0949 -1.52384 1.3517 -2.42631s0.3007 -1.85222 0.1282 -2.77452 -0.5567 -1.79199 -1.1224 -2.54062c-0.5656 -0.74864 -1.2972 -1.35581 -2.1373 -1.77373S18.3713 0.499528 17.433 0.500001" stroke-width="1"></path>
  <path stroke="#000000" d="M17.5 9c-0.1381 0 -0.25 -0.11193 -0.25 -0.25s0.1119 -0.25 0.25 -0.25" stroke-width="1"></path>
  <path stroke="#000000" d="M17.5 9c0.1381 0 0.25 -0.11193 0.25 -0.25s-0.1119 -0.25 -0.25 -0.25" stroke-width="1"></path>
</svg>