<svg viewBox="0 0 24 24" xmlns="http://www.w3.org/2000/svg" id="Megaphone--Streamline-Ultimate" height="24" width="24">
  <desc>
    Megaphone Streamline Icon: https://streamlinehq.com
  </desc>
  <path d="m7.5 6.9 0 8.655a7.192 7.192 0 0 0 4 6.445" fill="none" stroke="#000000" stroke-linecap="round" stroke-linejoin="round" stroke-width="1"></path>
  <path d="M21.5 4.484a1 1 0 0 0 -1.421 -0.907C16.244 5.356 12.456 6.964 4.5 7h-1a3 3 0 0 0 -3 3v2a3 3 0 0 0 3 3h1c7.956 0.036 11.744 1.644 15.579 3.423a1 1 0 0 0 1.421 -0.907Z" fill="none" stroke="#000000" stroke-linecap="round" stroke-linejoin="round" stroke-width="1"></path>
  <path d="M21.5 9h0.5a1.5 1.5 0 0 1 1.5 1.5v1A1.5 1.5 0 0 1 22 13h-0.5" fill="none" stroke="#000000" stroke-linecap="round" stroke-linejoin="round" stroke-width="1"></path>
</svg>