<svg viewBox="0 0 24 24" xmlns="http://www.w3.org/2000/svg" id="Binocular--Streamline-Ultimate" height="24" width="24">
  <desc>
    Binocular Streamline Icon: https://streamlinehq.com
  </desc>
  <path d="M0.5 18.5a5 5 0 1 0 10 0 5 5 0 1 0 -10 0" fill="none" stroke="#000000" stroke-linecap="round" stroke-linejoin="round" stroke-width="1"></path>
  <path d="M10.5 7V3a2.281 2.281 0 0 0 -3 0L6 7 4.5 8.5l-3 7" fill="none" stroke="#000000" stroke-linecap="round" stroke-linejoin="round" stroke-width="1"></path>
  <path d="M13.5 18.5a5 5 0 1 0 10 0 5 5 0 1 0 -10 0" fill="none" stroke="#000000" stroke-linecap="round" stroke-linejoin="round" stroke-width="1"></path>
  <path d="M13.5 7V3.063a2.281 2.281 0 0 1 3 0L18 7l1.5 1.5 3 7" fill="none" stroke="#000000" stroke-linecap="round" stroke-linejoin="round" stroke-width="1"></path>
  <path d="M8 11c0 -1.1 1.791 -2 4 -2s4 0.895 4 2" fill="none" stroke="#000000" stroke-linecap="round" stroke-linejoin="round" stroke-width="1"></path>
  <path d="m10.5 18.5 0 -9.355" fill="none" stroke="#000000" stroke-linecap="round" stroke-linejoin="round" stroke-width="1"></path>
  <path d="m13.5 18.5 0 -9.355" fill="none" stroke="#000000" stroke-linecap="round" stroke-linejoin="round" stroke-width="1"></path>
</svg>