<svg xmlns="http://www.w3.org/2000/svg" fill="none" viewBox="0 0 24 24" id="Flow-Chart-Hierachy--Streamline-Ultimate" height="24" width="24">
  <desc>
    Flow Chart Hierachy Streamline Icon: https://streamlinehq.com
  </desc>
  <path stroke="#000000" stroke-linecap="round" stroke-linejoin="round" stroke-miterlimit="10" d="M16.1501 6.40002h-8.2c-1.6 0 -2.80001 -1.30004 -2.80001 -2.80004 0 -1.6 1.30001 -2.799931 2.80001 -2.799931h8.2c1.6 0 2.8 1.299931 2.8 2.799931s-1.3 2.80004 -2.8 2.80004" stroke-width="1"></path>
  <path stroke="#000000" stroke-linecap="round" stroke-linejoin="round" stroke-miterlimit="10" d="M20.95 15.9H3.04999c-0.3 0 -0.5 -0.2 -0.5 -0.5v-4.7c0 -0.3 0.2 -0.5 0.5 -0.5H20.95c0.3 0 0.5 0.2 0.5 0.5v4.7c0 0.3 -0.2 0.5 -0.5 0.5" stroke-width="1"></path>
  <path stroke="#000000" stroke-linecap="round" stroke-linejoin="round" stroke-miterlimit="10" d="M12.05 6.40015v3.79995" stroke-width="1"></path>
  <path stroke="#000000" stroke-linecap="round" stroke-linejoin="round" stroke-miterlimit="10" d="M12.05 15.9001v7.3" stroke-width="1"></path>
  <path stroke="#000000" stroke-linecap="round" stroke-linejoin="round" stroke-miterlimit="10" d="m15.15 20 -3.1 3.2L8.85004 20" stroke-width="1"></path>
</svg>